<svg width="17" height="16" viewBox="0 0 17 16" fill="none" xmlns="http://www.w3.org/2000/svg">
<path d="M6.62533 14.4818L6.60649 15H7.125H9.375H9.89351L9.87467 14.4818L9.72169 10.2748L13.279 12.5316L13.7212 12.8121L13.981 12.3574L15.106 10.3887L15.364 9.93717L14.9027 9.69709L11.1612 7.75L14.9027 5.80291L15.364 5.56283L15.106 5.1113L13.981 3.14256L13.7212 2.6879L13.279 2.96842L9.72169 5.22523L9.87467 1.01817L9.89351 0.5H9.375H7.125H6.60649L6.62533 1.01817L6.77831 5.22523L3.22097 2.96842L2.7788 2.6879L2.519 3.14256L1.394 5.1113L1.13599 5.56283L1.59731 5.80291L5.33877 7.75L1.59731 9.69709L1.13599 9.93717L1.394 10.3887L2.519 12.3574L2.7788 12.8121L3.22098 12.5316L6.77831 10.2748L6.62533 14.4818Z" fill="#FF4903" stroke="#FF4903"/>
</svg>
